<?xml version="1.0" encoding="UTF-8" standalone="no"?>
<svg
   xmlns:dc="http://purl.org/dc/elements/1.1/"
   xmlns:cc="http://creativecommons.org/ns#"
   xmlns:rdf="http://www.w3.org/1999/02/22-rdf-syntax-ns#"
   xmlns:svg="http://www.w3.org/2000/svg"
   xmlns="http://www.w3.org/2000/svg"
   viewBox="0 0 2829.3333 2829.3333"
   height="2829.3333"
   width="2829.3333"
   xml:space="preserve"
   id="svg2"
   version="1.1"><metadata
     id="metadata8"><rdf:RDF><cc:Work
         rdf:about=""><dc:format>image/svg+xml</dc:format><dc:type
           rdf:resource="http://purl.org/dc/dcmitype/StillImage" /></cc:Work></rdf:RDF></metadata><defs
     id="defs6" /><g
     transform="matrix(1.3333333,0,0,-1.3333333,0,2829.3333)"
     id="g10"><g
       transform="scale(0.1)"
       id="g12"><path
         id="path14"
         style="fill:#659cd9;fill-opacity:1;fill-rule:nonzero;stroke:none"
         d="M 14844.4,5007.1 H 5503.44 l 670.4,7214 h 9340.86 l -670.3,-7214" /><g
         transform="scale(1.02675)"
         id="g16"><path
           id="path18"
           style="fill:#233968;fill-opacity:1;fill-rule:nonzero;stroke:none"
           d="M 15110,11902.6 16300,4876.63 H 14457.1 L 15110,11902.6" /></g><path
         id="path20"
         style="fill:#f7fdff;fill-opacity:1;fill-rule:nonzero;stroke:none"
         d="M 14266.4,5496.4 H 6174.23 l 577.53,5924.9 h 8092.14 l -577.5,-5924.9" /><path
         id="path22"
         style="fill:#3471c1;fill-opacity:1;fill-rule:nonzero;stroke:none"
         d="m 7362.92,11642.1 h -628.11 l 38.1,259.3 h 630.74 l -40.73,-259.3" /><path
         id="path24"
         style="fill:#3471c1;fill-opacity:1;fill-rule:nonzero;stroke:none"
         d="m 8575.18,11642.1 h -628.2 l 38.1,259.3 h 630.83 l -40.73,-259.3" /><path
         id="path26"
         style="fill:#3471c1;fill-opacity:1;fill-rule:nonzero;stroke:none"
         d="m 9787.35,11642.1 h -628.2 l 38.19,259.3 h 630.74 l -40.73,-259.3" /><path
         id="path28"
         style="fill:#3471c1;fill-opacity:1;fill-rule:nonzero;stroke:none"
         d="m 10999.5,11642.1 h -628.2 l 38.2,259.3 h 630.7 l -40.7,-259.3" /><path
         id="path30"
         style="fill:#3471c1;fill-opacity:1;fill-rule:nonzero;stroke:none"
         d="m 12211.8,11642.1 h -628.3 l 38.2,259.3 h 630.7 l -40.6,-259.3" /><path
         id="path32"
         style="fill:#3471c1;fill-opacity:1;fill-rule:nonzero;stroke:none"
         d="m 13424,11642.1 h -628.3 l 38.1,259.3 h 630.8 l -40.6,-259.3" /><path
         id="path34"
         style="fill:#3471c1;fill-opacity:1;fill-rule:nonzero;stroke:none"
         d="m 14636.1,11642.1 h -628.3 l 38.2,259.3 h 630.8 l -40.7,-259.3" /><path
         id="path36"
         style="fill:#4267ba;fill-opacity:1;fill-rule:nonzero;stroke:none"
         d="m 7397.7,12290.2 -3.6,-69.1 h 177.63 l 2.92,57.7 c 12.57,163.1 -14.32,320.7 -75.8,443.7 -68.99,138 -173.35,219 -293.89,228.3 -121.02,9.1 -236.2,-54.9 -325.35,-180.6 -79.52,-112.3 -130.29,-263.8 -142.85,-426.9 -12.58,-163.1 14.51,-320.6 76,-443.7 68.79,-137.9 173.15,-219 293.79,-228.3 2.34,-0.1 4.58,-0.2 6.92,-0.2 45.89,0 84.77,35.3 88.28,81.9 3.8,48.8 -32.75,91.4 -81.66,95.2 -55.15,4.2 -109.33,51.9 -148.7,130.7 -46.67,93.4 -67.72,221.3 -57.78,350.8 10.04,129.6 50.38,252.7 110.7,337.8 51.05,71.9 111.86,110.8 167.01,106.4 55.15,-4.2 109.33,-51.8 148.79,-130.6 46.58,-93.4 67.73,-221.3 57.59,-353.1" /><path
         id="path38"
         style="fill:#4267ba;fill-opacity:1;fill-rule:nonzero;stroke:none"
         d="m 8590.19,12290.2 -3.61,-69.1 h 177.54 l 3.12,57.7 c 12.47,163.1 -14.52,320.7 -76.01,443.7 -68.89,138 -173.25,219 -293.78,228.3 -121.03,9.1 -236.1,-54.9 -325.36,-180.6 -79.51,-112.3 -130.28,-263.8 -142.85,-426.9 -12.47,-163.1 14.42,-320.6 75.91,-443.7 68.99,-137.9 173.35,-219 293.88,-228.3 2.34,-0.1 4.58,-0.2 6.82,-0.2 45.9,0 84.87,35.3 88.38,81.9 3.71,48.8 -32.84,91.4 -81.66,95.2 -55.05,4.2 -109.32,51.9 -148.69,130.7 -46.67,93.4 -67.72,221.3 -57.68,350.8 9.84,129.6 50.27,252.7 110.69,337.8 50.86,71.9 111.76,110.8 166.92,106.4 55.15,-4.2 109.42,-51.8 148.69,-130.6 46.68,-93.4 67.72,-221.3 57.69,-353.1" /><path
         id="path40"
         style="fill:#4267ba;fill-opacity:1;fill-rule:nonzero;stroke:none"
         d="m 9782.58,12290.2 -3.61,-69.1 h 177.73 l 2.83,57.7 c 12.57,163.1 -14.33,320.7 -75.81,443.7 -68.89,138 -173.25,219 -293.88,228.3 -121.03,9.1 -236.1,-54.9 -325.26,-180.6 -79.62,-112.3 -130.38,-263.8 -142.85,-426.9 -12.57,-163.1 14.42,-320.6 75.91,-443.7 68.88,-137.9 173.24,-219 293.88,-228.3 2.24,-0.1 4.48,-0.2 6.92,-0.2 45.89,0 84.67,35.3 88.18,81.9 3.9,48.8 -32.64,91.4 -81.56,95.2 -55.25,4.2 -109.43,51.9 -148.69,130.7 -46.78,93.4 -67.72,221.3 -57.79,350.8 10.04,129.6 50.38,252.7 110.69,337.8 50.97,71.9 111.77,110.8 166.92,106.4 55.25,-4.2 109.43,-51.8 148.8,-130.6 46.67,-93.4 67.72,-221.3 57.59,-353.1" /><path
         id="path42"
         style="fill:#4267ba;fill-opacity:1;fill-rule:nonzero;stroke:none"
         d="m 10975.1,12290.2 -3.6,-69.1 h 177.6 l 3,57.7 c 12.5,163.1 -14.4,320.7 -75.9,443.7 -69,138 -173.3,219 -293.9,228.3 -120.9,9.1 -236.1,-54.9 -325.2,-180.6 -79.6,-112.3 -130.4,-263.8 -143,-426.9 -12.5,-163.1 14.5,-320.6 76,-443.7 68.9,-137.9 173.3,-219 293.8,-228.3 2.4,-0.1 4.7,-0.2 6.9,-0.2 45.9,0 84.8,35.3 88.4,81.9 3.7,48.8 -32.9,91.4 -81.7,95.2 -55.1,4.2 -109.4,51.9 -148.7,130.7 -46.6,93.4 -67.8,221.3 -57.7,350.8 9.8,129.6 50.2,252.7 110.7,337.8 50.8,71.9 111.8,110.8 167,106.4 55.1,-4.2 109.3,-51.8 148.6,-130.6 46.7,-93.4 67.8,-221.3 57.7,-353.1" /><path
         id="path44"
         style="fill:#4267ba;fill-opacity:1;fill-rule:nonzero;stroke:none"
         d="m 12167.5,12290.2 -3.6,-69.1 h 177.7 l 2.9,57.7 c 12.6,163.1 -14.4,320.7 -75.9,443.7 -68.8,138 -173.2,219 -293.8,228.3 -121,9.1 -236.2,-54.9 -325.3,-180.6 -79.6,-112.3 -130.3,-263.8 -142.8,-426.9 -12.6,-163.1 14.3,-320.6 75.8,-443.7 69,-137.9 173.3,-219 293.9,-228.3 2.2,-0.1 4.6,-0.2 6.9,-0.2 45.9,0 84.8,35.3 88.3,81.9 3.8,48.8 -32.7,91.4 -81.7,95.2 -55.1,4.2 -109.3,51.9 -148.7,130.7 -46.6,93.4 -67.7,221.3 -57.6,350.8 9.9,129.6 50.2,252.7 110.6,337.8 51,71.9 111.8,110.8 167,106.4 55.1,-4.2 109.4,-51.8 148.8,-130.6 46.6,-93.4 67.6,-221.3 57.5,-353.1" /><path
         id="path46"
         style="fill:#4267ba;fill-opacity:1;fill-rule:nonzero;stroke:none"
         d="m 13359.9,12290.2 -3.5,-69.1 h 177.6 l 3,57.7 c 12.6,163.1 -14.4,320.7 -75.8,443.7 -69.1,138 -173.4,219 -294,228.3 -120.9,9.1 -236.1,-54.9 -325.3,-180.6 -79.6,-112.3 -130.3,-263.8 -142.8,-426.9 -12.6,-163.1 14.5,-320.6 75.9,-443.7 68.9,-137.9 173.2,-219 293.8,-228.3 2.4,-0.1 4.7,-0.2 6.9,-0.2 46,0 84.8,35.3 88.4,81.9 3.7,48.8 -32.9,91.4 -81.7,95.2 -55.1,4.2 -109.4,51.9 -148.7,130.7 -46.6,93.4 -67.7,221.3 -57.8,350.8 10,129.6 50.4,252.7 110.7,337.8 51,71.9 111.9,110.8 167.1,106.4 55.1,-4.2 109.3,-51.8 148.6,-130.6 46.7,-93.4 67.8,-221.3 57.6,-353.1" /><path
         id="path48"
         style="fill:#4267ba;fill-opacity:1;fill-rule:nonzero;stroke:none"
         d="m 14552.4,12290.2 -3.6,-69.1 h 177.7 l 3,57.7 c 12.5,163.1 -14.5,320.7 -76,443.7 -68.8,138 -173.2,219 -293.7,228.3 -121,9.1 -236.2,-54.9 -325.4,-180.6 -79.6,-112.3 -130.3,-263.8 -142.8,-426.9 -12.6,-163.1 14.4,-320.6 75.8,-443.7 69,-137.9 173.3,-219 294,-228.3 2.2,-0.1 4.5,-0.2 6.8,-0.2 45.9,0 84.8,35.3 88.4,81.9 3.7,48.8 -32.9,91.4 -81.7,95.2 -55.1,4.2 -109.3,51.9 -148.8,130.7 -46.6,93.4 -67.7,221.3 -57.7,350.8 10,129.6 50.3,252.7 110.7,337.8 51,71.9 111.9,110.8 167,106.4 55.2,-4.2 109.4,-51.8 148.7,-130.6 46.7,-93.4 67.7,-221.3 57.6,-353.1" /><path
         id="path50"
         style="fill:#659cd9;fill-opacity:1;fill-rule:nonzero;stroke:none"
         d="m 6089.94,10867.3 h 8719.16 v 62.699 H 6089.94 Z" /><path
         id="path52"
         style="fill:#659cd9;fill-opacity:1;fill-rule:nonzero;stroke:none"
         d="m 5981.78,9765.4 h 8719.02 v 62.7969 H 5981.78 Z" /><path
         id="path54"
         style="fill:#659cd9;fill-opacity:1;fill-rule:nonzero;stroke:none"
         d="m 6089.94,8663.6 h 8502.76 v 62.8008 H 6089.94 Z" /><path
         id="path56"
         style="fill:#659cd9;fill-opacity:1;fill-rule:nonzero;stroke:none"
         d="m 5981.78,7561.8 h 8502.72 v 62.6992 H 5981.78 Z" /><path
         id="path58"
         style="fill:#659cd9;fill-opacity:1;fill-rule:nonzero;stroke:none"
         d="m 5881.32,6459.9 h 8494.98 v 62.7969 H 5881.32 Z" /><path
         id="path60"
         style="fill:#659cd9;fill-opacity:1;fill-rule:nonzero;stroke:none"
         d="m 7268.68,5493.5 596.24,6034.8 -58.84,5.8 -596.24,-6034.8" /><path
         id="path62"
         style="fill:#659cd9;fill-opacity:1;fill-rule:nonzero;stroke:none"
         d="m 8461.17,5493.5 596.14,6034.8 -58.84,5.8 -596.15,-6034.8" /><path
         id="path64"
         style="fill:#659cd9;fill-opacity:1;fill-rule:nonzero;stroke:none"
         d="m 9653.56,5493.5 596.24,6034.8 -58.8,5.8 -596.29,-6034.8" /><path
         id="path66"
         style="fill:#659cd9;fill-opacity:1;fill-rule:nonzero;stroke:none"
         d="m 10846,5493.5 596.3,6034.8 -58.9,5.8 -596.2,-6034.8" /><path
         id="path68"
         style="fill:#659cd9;fill-opacity:1;fill-rule:nonzero;stroke:none"
         d="m 12038.4,5493.5 596.3,6034.8 -58.9,5.8 -596.2,-6034.8 58.8,-5.8" /><path
         id="path70"
         style="fill:#659cd9;fill-opacity:1;fill-rule:nonzero;stroke:none"
         d="m 13230.9,5493.5 596.3,6034.8 -58.9,5.8 -596.2,-6034.8 58.8,-5.8" /><path
         id="path72"
         style="fill:#bedfec;fill-opacity:1;fill-rule:nonzero;stroke:none"
         d="m 14266.4,5496.4 h -1035.2 l 95.2,963.5 h 1033.9 l -93.9,-963.5 m 100.1,1026.3 h -1033.9 l 102.7,1039.1 h 1032.4 l -101.2,-1039.1 m 107.3,1101.8 h -1032.3 l 102.6,1039.1 h 1031 l -101.3,-1039.1 m 107.4,1101.9 h -1030.9 l 102.7,1039 h 1029.5 l -101.3,-1039 m 107.4,1101.8 h -1029.4 l 102.6,1039.1 h 1028.1 L 14688.6,9828.2 M 14796,10930 h -1028 l 48.6,491.3 h 1027.3 L 14796,10930" /><path
         id="path74"
         style="fill:#508fcb;fill-opacity:1;fill-rule:nonzero;stroke:none"
         d="m 14789.9,10867.3 v 0 h -1028.1 l 6.2,62.7 h 1028 l -6.1,-62.7" /><path
         id="path76"
         style="fill:#508fcb;fill-opacity:1;fill-rule:nonzero;stroke:none"
         d="m 14682.5,9765.4 v 0 H 13653 l 6.2,62.8 h 1029.4 l -6.1,-62.8" /><path
         id="path78"
         style="fill:#508fcb;fill-opacity:1;fill-rule:nonzero;stroke:none"
         d="m 14575.1,8663.6 v 0 h -1031 l 6.2,62.8 h 1030.9 l -6.1,-62.8" /><path
         id="path80"
         style="fill:#508fcb;fill-opacity:1;fill-rule:nonzero;stroke:none"
         d="m 14467.7,7561.8 v 0 h -1032.4 l 6.2,62.7 h 1032.3 l -6.1,-62.7" /><path
         id="path82"
         style="fill:#508fcb;fill-opacity:1;fill-rule:nonzero;stroke:none"
         d="m 14360.3,6459.9 v 0 h -1033.9 l 6.2,62.8 h 1033.9 l -6.2,-62.8" /><path
         id="path84"
         style="fill:#bedfec;fill-opacity:1;fill-rule:nonzero;stroke:none"
         d="m 13201.5,5496.4 h -1162.8 l 95.2,963.5 H 13267 l -94.9,-960.6 29.4,-2.9 m -1192.5,0 v 0 0 m 1264.2,1026.3 h -1133.1 l 102.7,1039.1 h 1133 l -102.6,-1039.1 m 108.8,1101.8 h -1133 l 102.6,1039.1 h 1133.1 L 13382,7624.5 m 108.9,1101.9 h -1133.1 l 102.7,1039 h 1133.1 l -102.7,-1039 m 108.9,1101.8 h -1133.1 l 102.7,1039.1 h 1133 l -102.6,-1039.1 m 108.8,1101.8 h -1133 l 48.5,491.3 h 1133.1 l -48.6,-491.3" /><path
         id="path86"
         style="fill:#508fcb;fill-opacity:1;fill-rule:nonzero;stroke:none"
         d="m 13702.4,10867.3 h -1133 l 6.2,62.7 h 1133 l -6.2,-62.7" /><path
         id="path88"
         style="fill:#508fcb;fill-opacity:1;fill-rule:nonzero;stroke:none"
         d="m 13593.6,9765.4 h -1133.1 l 6.2,62.8 h 1133.1 l -6.2,-62.8" /><path
         id="path90"
         style="fill:#508fcb;fill-opacity:1;fill-rule:nonzero;stroke:none"
         d="m 13484.7,8663.6 h -1133.1 l 6.2,62.8 h 1133.1 l -6.2,-62.8" /><path
         id="path92"
         style="fill:#508fcb;fill-opacity:1;fill-rule:nonzero;stroke:none"
         d="m 13375.8,7561.8 h -1133 l 6.2,62.7 h 1133 l -6.2,-62.7" /><path
         id="path94"
         style="fill:#508fcb;fill-opacity:1;fill-rule:nonzero;stroke:none"
         d="m 13267,6459.9 h -1133.1 l 6.2,62.8 h 1133.1 l -6.2,-62.8" /><path
         id="path96"
         style="fill:#508fcb;fill-opacity:1;fill-rule:nonzero;stroke:none"
         d="m 12038.7,5496.4 h -29.7 v 0 0 l 596.3,5924.9 h 18.8 l -48.5,-491.3 -6.2,-62.7 -102.7,-1039.1 -6.2,-62.8 -102.7,-1039 -6.2,-62.8 -102.6,-1039.1 -6.2,-62.7 -102.7,-1039.1 -6.2,-62.8 -95.2,-963.5" /><path
         id="path98"
         style="fill:#508fcb;fill-opacity:1;fill-rule:nonzero;stroke:none"
         d="m 13231.2,5496.4 h -29.7 l -29.4,2.9 94.9,960.6 6.2,62.8 102.6,1039.1 6.2,62.7 102.7,1039.1 6.2,62.8 102.7,1039 6.2,62.8 102.6,1039.1 6.2,62.7 48.6,491.3 h 59.4 l -48.6,-491.3 -6.2,-62.7 -102.6,-1039.1 -6.2,-62.8 -102.7,-1039 -6.2,-62.8 -102.6,-1039.1 -6.2,-62.7 -102.7,-1039.1 -6.2,-62.8 -95.2,-963.5" /><path
         id="path100"
         style="fill:#3471c1;fill-opacity:1;fill-rule:nonzero;stroke:none"
         d="m 6875.12,11250.7 -18.41,-146.1 h 753.9 l 13.84,146.1 h -749.33" /><path
         id="path102"
         style="fill:#3471c1;fill-opacity:1;fill-rule:nonzero;stroke:none"
         d="m 8020.84,11250.7 -18.52,-146.1 h 754.01 l 13.83,146.1 h -749.32" /><path
         id="path104"
         style="fill:#3471c1;fill-opacity:1;fill-rule:nonzero;stroke:none"
         d="m 9213.32,11250.7 -18.41,-146.1 h 753.8 l 13.93,146.1 h -749.32" /><path
         id="path106"
         style="fill:#3471c1;fill-opacity:1;fill-rule:nonzero;stroke:none"
         d="m 10389.7,11250.7 -18.4,-146.1 h 753.9 l 13.9,146.1 h -749.4" /><path
         id="path108"
         style="fill:#3471c1;fill-opacity:1;fill-rule:nonzero;stroke:none"
         d="m 11601.9,11250.7 -18.4,-146.1 h 753.9 l 13.8,146.1 h -749.3" /><path
         id="path110"
         style="fill:#3471c1;fill-opacity:1;fill-rule:nonzero;stroke:none"
         d="m 11337.7,9610.7 -4.6,-73 h 981.4 l 9.9,73 h -986.7" /><path
         id="path112"
         style="fill:#3471c1;fill-opacity:1;fill-rule:nonzero;stroke:none"
         d="m 11266.3,9238.9 -4.7,-73 h 981.5 l 9.9,73 h -986.7" /><path
         id="path114"
         style="fill:#3471c1;fill-opacity:1;fill-rule:nonzero;stroke:none"
         d="m 11310.6,9448.1 -4.6,-73 h 500.5 l 9.9,73 h -505.8" /><path
         id="path116"
         style="fill:#3471c1;fill-opacity:1;fill-rule:nonzero;stroke:none"
         d="m 12304.6,7363.5 -4.6,-73.1 h 981.4 l 9.9,73.1 h -986.7" /><path
         id="path118"
         style="fill:#3471c1;fill-opacity:1;fill-rule:nonzero;stroke:none"
         d="m 12272.6,6991.7 -4.7,-73 h 981.5 l 9.9,73 h -986.7" /><path
         id="path120"
         style="fill:#3471c1;fill-opacity:1;fill-rule:nonzero;stroke:none"
         d="m 12304.6,7200.8 -4.6,-72.9 h 500.5 l 9.9,72.9 h -505.8" /><path
         id="path122"
         style="fill:#3471c1;fill-opacity:1;fill-rule:nonzero;stroke:none"
         d="m 12247.5,6792.3 -3.9,-73.1 500.6,5 9.2,73.2 -505.9,-5.1" /><path
         id="path124"
         style="fill:#3471c1;fill-opacity:1;fill-rule:nonzero;stroke:none"
         d="m 7547.08,7328 -4.58,-73 h 981.42 l 9.85,73 h -986.69" /><path
         id="path126"
         style="fill:#3471c1;fill-opacity:1;fill-rule:nonzero;stroke:none"
         d="m 7519.89,7165.4 -4.58,-73 h 500.65 l 9.85,73 h -505.92" /><path
         id="path128"
         style="fill:#3471c1;fill-opacity:1;fill-rule:nonzero;stroke:none"
         d="m 12652.6,10586.6 -4.6,-73 h 981.5 l 9.8,73 h -986.7" /><path
         id="path130"
         style="fill:#3471c1;fill-opacity:1;fill-rule:nonzero;stroke:none"
         d="m 12625.5,10424 -4.7,-73 h 500.7 l 9.8,73 h -505.8" /><path
         id="path132"
         style="fill:#3471c1;fill-opacity:1;fill-rule:nonzero;stroke:none"
         d="m 12814.2,11250.7 -18.5,-146.1 h 753.9 l 13.8,146.1 h -749.2" /><path
         id="path134"
         style="fill:#3471c1;fill-opacity:1;fill-rule:nonzero;stroke:none"
         d="m 13907,11250.7 -18.4,-146.1 h 754 l 13.8,146.1 H 13907" /><path
         id="path136"
         style="fill:#f6dc6b;fill-opacity:1;fill-rule:nonzero;stroke:none"
         d="m 9252.01,8513.8 99.58,-201.9 222.85,-32.4 -161.26,-157.2 38.09,-222 -199.26,104.8 -199.37,-104.8 38.1,222 -161.26,157.2 222.75,32.4 99.78,201.9" /><path
         id="path138"
         style="fill:#f6dc6b;fill-opacity:1;fill-rule:nonzero;stroke:none"
         d="m 8281.39,10662.3 99.69,-201.9 222.85,-32.4 -161.27,-157.2 38,-222 -199.27,104.8 -199.36,-104.8 38.1,222 -161.27,157.2 222.85,32.4 99.68,201.9" /><g
         transform="scale(1.09525)"
         id="g140"><path
           id="path142"
           style="fill:#ae6733;fill-opacity:1;fill-rule:nonzero;stroke:none"
           d="m 9709.68,16300 c -4.75,-52.8 20.09,-107.8 34.69,-157.3 17.08,-57.9 38.08,-112.7 74.42,-160.9 46.47,-61.7 133.48,-89.1 159.6,1.2 24.91,85.5 42.31,197 -47.84,236.4 -60.63,26.6 -161.25,28.9 -206.44,75.8 l -14.43,4.8" /></g><g
         transform="scale(1.00201)"
         id="g144"><path
           id="path146"
           style="fill:#f69575;fill-opacity:1;fill-rule:nonzero;stroke:none"
           d="m 10919.5,15838.6 c 0,0 -228.3,-1352.8 -416.1,-1804.9 0,0 -272.5,-43.6 -351.9,113.6 0,0 71.5,1140.8 138.4,1748.2 0,0 362.8,404.5 629.6,-56.9" /></g><path
         id="path148"
         style="fill:#f69575;fill-opacity:1;fill-rule:nonzero;stroke:none"
         d="m 10171.9,14175.7 c 0,0 -138.7,-624.9 -185.99,-1355.4 0,0 41.79,-109.4 109.79,-33.3 113.8,127.3 496.8,1314.4 439.4,1392.9 -267.4,366.3 -363.2,-4.2 -363.2,-4.2" /><path
         id="path150"
         style="fill:#f69575;fill-opacity:1;fill-rule:nonzero;stroke:none"
         d="m 10432.1,15700.7 c 133.2,-112.3 332.1,-96.5 444.3,35.2 112.2,131.7 95.3,329.4 -38,441.6 -133.1,112.2 -332,96.4 -444.3,-35.3 -112.1,-131.6 -95.2,-329.3 38,-441.5" /><path
         id="path152"
         style="fill:#e1886a;fill-opacity:1;fill-rule:nonzero;stroke:none"
         d="m 10081.5,12618.1 -54.1,-133.6 36,-203.2 c 0,0 -41.5,-22.1 -64.58,47.2 l -35.1,168.9 47.88,153.5 69.9,-32.8" /><path
         id="path154"
         style="fill:#e1886a;fill-opacity:1;fill-rule:nonzero;stroke:none"
         d="m 10033.2,12580.2 -61.47,-130.3 24.56,-204.9 c 0,0 -42.61,-19.8 -61.75,50.7 l -25.61,170.6 56.44,150.6 67.83,-36.7" /><path
         id="path156"
         style="fill:#f69575;fill-opacity:1;fill-rule:nonzero;stroke:none"
         d="m 9871,12587.1 64.09,154.9 76.11,193.1 129.2,-13 -8.2,-221.1 -16.4,-113.2 -24.1,-154 -5.1,-50.5 c 0,0 -42.2,-3.2 -53.8,82 l 2.7,150.1 -81.4,-98.8 -1.76,-207.7 c 0,0 -36.69,-99.9 -58.15,-53.7 l -36.36,301.1 13.17,30.8" /><g
         transform="scale(1.04875)"
         id="g158"><path
           id="path160"
           style="fill:#f69575;fill-opacity:1;fill-rule:nonzero;stroke:none"
           d="m 11024.2,16300 v -656.7 h -467.3 v 353.9 l 467.3,302.8" /></g><g
         transform="scale(1.04875)"
         id="g162"><path
           id="path164"
           style="fill:#e27462;fill-opacity:1;fill-rule:nonzero;stroke:none"
           d="m 11024.2,16300 v -328.4 c -143.5,-79.5 -276.5,-112.3 -467.3,-138.2 v 163.8 l 467.3,302.8" /></g><path
         id="path166"
         style="fill:#4c3738;fill-opacity:1;fill-rule:nonzero;stroke:none"
         d="m 9174.32,10018.7 c 0,0 -17.93,-213.1 -73.03,-279.3 -55.05,-66.3 -287.36,-189.3 -287.36,-189.3 l -132.88,-42.7 c 0,0 -83.24,-84 188.74,-111.5 272.06,-27.4 691.93,265.5 691.93,265.5 l -173.49,400 -213.91,-42.7" /><path
         id="path168"
         style="fill:#102242;fill-opacity:1;fill-rule:nonzero;stroke:none"
         d="m 11106.6,13811.1 c 0,0 -82.2,18 -617.6,-90.8 -775.51,-157.6 -1872.41,-614.8 -1872.41,-614.8 0,0 -182.58,-257.8 26.14,-647.7 1179.82,90.6 2579.87,250.9 2579.87,250.9 l -116,1102.4" /><path
         id="path170"
         style="fill:#102242;fill-opacity:1;fill-rule:nonzero;stroke:none"
         d="m 9264.92,12543.6 c 125.28,-520 179.92,-619.5 191.25,-984.1 6.99,-225.4 -15.52,-1412.3 -0.07,-1554.9 6.4,-59.3 -333.96,-45.9 -333.96,-45.9 l -86.82,265.6 c -178.07,726.7 -473.17,2389.4 -473.17,2389.4 0,0 -109.62,280.5 343.33,426.1 0,0 270.35,-84.7 359.44,-496.2" /><path
         id="path172"
         style="fill:#152d57;fill-opacity:1;fill-rule:nonzero;stroke:none"
         d="m 12223.7,13326.2 c 0,0 -745.2,-904.9 -1611.5,-345.9 0,0 -12.1,713.7 105.8,978.5 h 1264.4 c 0,0 185.8,-347.4 241.3,-632.6" /><path
         id="path174"
         style="fill:#152d57;fill-opacity:1;fill-rule:nonzero;stroke:none"
         d="m 12251.5,12790.9 c 0,0 -320,-316.6 -791.1,-181.2 -471,135.2 -445.3,929.1 95.7,1055.2 534.5,124.7 815.7,-368.6 695.4,-874" /><path
         id="path176"
         style="fill:#152d57;fill-opacity:1;fill-rule:nonzero;stroke:none"
         d="m 9412.13,12710.6 c 646.07,364.5 2051.57,924.4 2051.57,924.4 l 198.9,-640.8 230.1,-393.4 c -447.6,-109.6 -1907.81,-524.1 -2459.23,-589 0,0 -291.28,520.1 -21.34,698.8" /><path
         id="path178"
         style="fill:#4c3738;fill-opacity:1;fill-rule:nonzero;stroke:none"
         d="m 10022.8,9945.1 c 0,0 -17.9,-213.1 -72.99,-279.3 -55.08,-66.3 -287.4,-189.4 -287.4,-189.4 l -132.92,-42.7 c 0,0 -83.26,-83.8 188.82,-111.4 272.01,-27.5 691.89,265.4 691.89,265.4 l -173.4,400.1 -214,-42.7" /><path
         id="path180"
         style="fill:#152d57;fill-opacity:1;fill-rule:nonzero;stroke:none"
         d="m 10033.2,12580.2 c 0,0 154.1,-612.7 189,-1124.5 l 42.6,-1532.7 c 11.6,-58.4 -267.1,-137.3 -267.1,-137.3 l -97.88,215 c -327.21,664.5 -550.15,2182.3 -550.15,2182.3 0,0 -17.74,413.1 337.9,588.3 0,0 293.91,-22 345.63,-191.1" /><g
         transform="scale(1.10724)"
         id="g182"><path
           id="path184"
           style="fill:#f69575;fill-opacity:1;fill-rule:nonzero;stroke:none"
           d="m 9892.33,15121.9 c 0,0 -103.23,-23.1 -124.18,222.2 0,0 -93.66,484.5 35.13,801.6 62.77,154.3 431.82,120.6 573.42,68.9 181.1,-66.4 97.5,-282.7 97.5,-460.8 l -30.4,-296.3 c 0,0 -11.4,-157.3 -124.6,-246.4 0,0 -208.3,-121.2 -426.87,-89.2" /></g><g
         transform="scale(1.12751)"
         id="g186"><path
           id="path188"
           style="fill:#ae6733;fill-opacity:1;fill-rule:nonzero;stroke:none"
           d="m 10173.9,16072.3 c 0,0 282.2,-84 278.9,-232.6 0,0 129.3,-177.9 54.7,-406.5 0,0 -54.7,-226.8 -264.6,-433 0,112.1 -11.3,399.1 -11.3,399.1 0,0 -27.6,-88.5 -27.3,-115.1 h -50.7 c 0,0 -7,167.7 -78.8,219.6 0,0 29.2,176.6 -58.7,225.6 0,0 -124.33,72.3 -310.94,44.3 0,0 -110.77,-11.5 -119.37,-58.4 0,0 -133.93,-31 -153.26,132.2 0,0 41.24,-14 73.96,-14 0,0 -110.59,116.7 -73.96,256.6 0,0 125.23,-88.6 199.9,-93.3 0,0 -125.94,177.2 32.64,303.2 0,0 77.87,-126 267.5,-163.2 l 241.33,-64.5" /></g><g
         transform="scale(1.0662)"
         id="g190"><path
           id="path192"
           style="fill:#f7906e;fill-opacity:1;fill-rule:nonzero;stroke:none"
           d="m 10813.3,16092.3 c 12.5,-9.5 28.3,-15 48.3,-14.6 53.8,0.7 98.4,51 99.7,112.2 1.2,61.1 -41.2,110.1 -95,109.3 -25.5,-0.3 -48.8,-11.9 -66.6,-30.4 -25.9,-27 -26.5,-76.8 -20.4,-111.1 4.9,-27.5 15.5,-51.1 34,-65.4" /></g><g
         transform="scale(1.06453)"
         id="g194"><path
           id="path196"
           style="fill:#eb7963;fill-opacity:1;fill-rule:nonzero;stroke:none"
           d="m 10861.7,16267.7 c 3.1,32.3 68.2,1.5 58.4,-16.6 -5.7,-10.5 -17.1,-18.1 -26.1,-25.4 -12.3,-10 -18.3,-19.2 -20,-35.1 -0.2,-1.8 -0.7,-7.5 1.3,-8.8 8.4,-5.9 36,25.6 42.1,32.2 11.9,13 13.5,35.3 7.8,51.4 -6.1,17.2 -17.4,25.3 -35.7,24.1 -14.7,-0.8 -29.5,-1.8 -28.7,-19.9 0.1,-0.4 0.7,-3.5 0.9,-1.9" /></g><g
         transform="scale(1.06069)"
         id="g198"><path
           id="path200"
           style="fill:#eb7963;fill-opacity:1;fill-rule:nonzero;stroke:none"
           d="m 10921.9,16293.2 c -6.8,6.8 -13.4,1.1 -20.2,-3.9 -6.4,-4.7 -10,-11.4 -11.7,-19 -3.8,-16.8 -1.5,-39.3 8.1,-53.9 7.7,-11.8 20.8,-19 35.1,-18.6 19.6,0.5 25.4,17.9 26.3,34.5 0.1,4.4 0.5,15 -3.9,17.8 -4.6,3 -8,-4.4 -11.2,-7.5 -4.4,-4.2 -10.9,-5.8 -16.6,-6.3 -11.2,-1 -22.2,4.7 -29.3,13 -1.2,1.5 -2.3,3.3 -3.1,5 0.1,-10.8 0.7,-13.2 1.9,-7.2 0.8,2.7 2.1,5.3 3.7,7.7 4.5,7.5 12.2,12.7 17.3,19.9 2.5,3.3 7,14.9 3.6,18.5" /></g><g
         transform="scale(1.00414)"
         id="g202"><path
           id="path204"
           style="fill:#f69575;fill-opacity:1;fill-rule:nonzero;stroke:none"
           d="m 12116.5,16183.8 c 0,0 -1060,116.2 -1518.4,35.1 -34.1,-6 -64.4,-13.6 -89.9,-22.7 0,0 4.6,-56.4 12.9,-147.2 17,-184.9 49.3,-512.4 89.4,-797.3 50.2,-356.7 -18.2,-679.1 52.2,-1032.1 58.1,-292.1 1208,-30.9 1208,-30.9 l 438.5,1477.2 c 0,0 156.4,401.5 -192.7,517.9" /></g><g
         transform="scale(1.01184)"
         id="g206"><path
           id="path208"
           style="fill:#f69575;fill-opacity:1;fill-rule:nonzero;stroke:none"
           d="M 11426.4,16300 H 10942 l -513.8,-227.2 c 78.1,-271.3 929.9,-220.4 929.9,-220.4 633.3,-21.9 790.8,156.4 790.8,156.4 l -722.5,291.2" /></g><g
         transform="scale(1.00545)"
         id="g210"><path
           id="path212"
           style="fill:#2848a4;fill-opacity:1;fill-rule:nonzero;stroke:none"
           d="m 10942.6,15982.8 c 0,0 -190.8,317.2 -455.7,213.4 0,0 -250.3,-70.9 -274,-439.4 l -126,-785.4 c 0,0 219.5,-187.2 702.2,-122.8 0,0 202.7,813 153.5,1134.2" /></g><g
         transform="scale(1.01092)"
         id="g214"><path
           id="path216"
           style="fill:#2848a4;fill-opacity:1;fill-rule:nonzero;stroke:none"
           d="m 10905.9,16294.5 -475.8,-186 c 0,0 12.2,-76.9 20.5,-167.1 16.8,-183.7 -47.8,-472.4 -8,-755.3 49.8,-354.3 89.2,-168.8 18.4,-921.7 0,0 -33.8,-404.6 -85.3,-692.3 -18.5,-103 462.5,-988.9 1786,-549.2 0,0 -8.3,652.1 -97.9,1157.9 l 211.8,1330.5 c 114.2,426.8 -115.6,512.2 -115.6,512.2 l -65.2,26.9 c -18,9.3 -37.7,17.6 -59.5,24.9 l -1.4,0.2 -552.3,224.5 c 0,0 -81,-350.8 -465.6,-306.4 0,0 -259.7,2 -110.1,300.9" /></g><path
         id="path218"
         style="fill:#f69575;fill-opacity:1;fill-rule:nonzero;stroke:none"
         d="m 12051.1,12953.5 -169.7,-98.6 -158.4,-136.8 c 46.4,-52.9 130.3,24.9 130.3,24.9 -75.9,-137.4 -182,-248.4 -182,-248.4 -31.3,-48.2 19.6,-57.5 19.6,-57.5 70.9,42.4 186.7,192 186.7,192 -53.3,-93.2 -163.9,-235.2 -163.9,-235.2 -18.5,-44.2 30.9,-43.3 30.9,-43.3 109.5,30.8 195.2,226.9 195.2,226.9 -30.1,-75 -133.5,-218.1 -133.5,-218.1 2.8,-34.4 20.9,-27.6 20.9,-27.6 90.6,11.1 172.5,200 172.5,200 l -32.6,-69.9 c -53,-91.8 15.1,-82.6 15.1,-82.6 l 35.3,43.8 c 105.1,135 121.9,277.2 121.9,277.2 l 46.9,178.1 -135.2,75.1" /><path
         id="path220"
         style="fill:#f69575;fill-opacity:1;fill-rule:nonzero;stroke:none"
         d="m 12345.7,15935.5 106.4,-11.9 c 0,0 423.8,-1325.6 347,-1627.8 -76.8,-302.2 -222.7,-52.8 -279.2,-32.1 -56.5,20.7 -741,1470.1 -741,1470.1 l 566.8,201.7" /><path
         id="path222"
         style="fill:#f69575;fill-opacity:1;fill-rule:nonzero;stroke:none"
         d="m 12395.2,14505.1 c 0,0 -262.3,-1293.3 -344.1,-1551.6 0,0 38.3,-143.9 135.2,-75.1 96.8,68.8 628.9,1304.4 612.8,1417.4 -16.1,112.9 -403.9,209.3 -403.9,209.3" /><path
         id="path224"
         style="fill:#2848a4;fill-opacity:1;fill-rule:nonzero;stroke:none"
         d="m 12060.7,14715.6 c 248.4,-74.2 777.8,424.1 777.8,424.1 l -325,852.7 c 0,0 -53.2,243.4 -383.8,223.7 0,0 -375.5,-28.8 -385.6,-429.4 l 316.6,-1071.1" /><path
         id="path226"
         style="fill:#38468e;fill-opacity:1;fill-rule:nonzero;stroke:none"
         d="m 1899.65,11578.5 c 0,-303.3 245.88,-549.2 549.18,-549.2 h 4828.5 c 303.3,0 549.22,245.9 549.22,549.2 v 3515 c 0,303.3 -245.92,549.2 -549.22,549.2 h -4828.5 c -303.3,0 -549.18,-245.9 -549.18,-549.2 v -3515" /><path
         id="path228"
         style="fill:#5a5cab;fill-opacity:1;fill-rule:nonzero;stroke:none"
         d="m 2174.32,11805.9 c 0,-303.3 245.84,-549.2 549.14,-549.2 h 4553.87 c 303.3,0 549.22,245.9 549.22,549.2 v 3287.6 c 0,303.3 -245.92,549.2 -549.22,549.2 H 2723.46 c -303.3,0 -549.14,-245.9 -549.14,-549.2 v -3287.6" /><path
         id="path230"
         style="fill:#5a5cab;fill-opacity:1;fill-rule:nonzero;stroke:none"
         d="M 7111.87,11543.3 V 10196.5 L 5807.44,11543.3 Z" /><path
         id="path232"
         style="fill:#4267ba;fill-opacity:1;fill-rule:nonzero;stroke:none"
         d="m 5604.85,13449.7 c 0,-188.6 152.98,-341.6 341.56,-341.6 188.63,0 341.61,153 341.61,341.6 0,188.6 -152.98,341.6 -341.61,341.6 -188.58,0 -341.56,-153 -341.56,-341.6" /><path
         id="path234"
         style="fill:#ffffff;fill-opacity:1;fill-rule:nonzero;stroke:none"
         d="m 5707.78,13449.7 c 0,-188.6 152.94,-341.6 341.65,-341.6 188.59,0 341.61,153 341.61,341.6 0,188.6 -153.02,341.6 -341.61,341.6 -188.71,0 -341.65,-153 -341.65,-341.6" /><path
         id="path236"
         style="fill:#4267ba;fill-opacity:1;fill-rule:nonzero;stroke:none"
         d="m 4469.98,13449.7 c 0,-188.6 152.99,-341.6 341.61,-341.6 188.67,0 341.61,153 341.61,341.6 0,188.6 -152.94,341.6 -341.61,341.6 -188.62,0 -341.61,-153 -341.61,-341.6" /><path
         id="path238"
         style="fill:#ffffff;fill-opacity:1;fill-rule:nonzero;stroke:none"
         d="m 4573,13449.7 c 0,-188.6 152.85,-341.6 341.56,-341.6 188.64,0 341.57,153 341.57,341.6 0,188.6 -152.93,341.6 -341.57,341.6 -188.71,0 -341.56,-153 -341.56,-341.6" /><path
         id="path240"
         style="fill:#4267ba;fill-opacity:1;fill-rule:nonzero;stroke:none"
         d="m 3335.11,13449.7 c 0,-188.6 152.98,-341.6 341.7,-341.6 188.67,0 341.61,153 341.61,341.6 0,188.6 -152.94,341.6 -341.61,341.6 -188.72,0 -341.7,-153 -341.7,-341.6" /><path
         id="path242"
         style="fill:#ffffff;fill-opacity:1;fill-rule:nonzero;stroke:none"
         d="m 3438.13,13449.7 c 0,-188.6 152.94,-341.6 341.61,-341.6 188.67,0 341.52,153 341.52,341.6 0,188.6 -152.85,341.6 -341.52,341.6 -188.67,0 -341.61,-153 -341.61,-341.6" /><path
         id="path244"
         style="fill:#f2544d;fill-opacity:1;fill-rule:nonzero;stroke:none"
         d="m 2579.72,11720.9 c 0.38,-158.4 4.64,-209 -108.01,-308.5 -39,-34.4 -112.65,-47.5 -125.33,-110.6 -12.88,-64.4 84.06,-151.4 79.04,-228.7 -14.48,-221.5 -416.52,-517.4 46.29,-585.3 134.99,-19.8 266.38,43.4 401,15.4 161.3,-33.5 215.74,-97.1 385.65,-46.7 230.41,68.3 270.65,305.7 189.33,524 -88.7,238.3 -67.3,276.4 22.72,508.7 80.66,207.9 20.54,395.4 -114.92,560 -134.04,162.9 -280.11,347.7 -502.29,225.5 -194.34,-107 -274.05,-343.4 -273.48,-553.8" /><path
         id="path246"
         style="fill:#f69575;fill-opacity:1;fill-rule:nonzero;stroke:none"
         d="m 2628.38,5625.9 -92.96,1157.2 h 764.03 L 3133.5,5651.9 c 0,0 -9.18,-383.2 -505.12,-26" /><path
         id="path248"
         style="fill:#f69575;fill-opacity:1;fill-rule:nonzero;stroke:none"
         d="m 3447.4,5625.9 -92.86,1157.2 h 764.03 L 3952.53,5651.9 c 0,0 -9.09,-383.2 -505.13,-26" /><path
         id="path250"
         style="fill:#f2544d;fill-opacity:1;fill-rule:nonzero;stroke:none"
         d="m 2726.17,11784.3 c 2.55,-188.7 182.98,-428.5 117.76,-611.3 -55.76,-156.5 -311.06,-321.5 -123.54,-509 46.77,-46.8 129.69,-49.2 166.04,-117.3 32.19,-60.1 11.08,-128.7 24.52,-193 15.24,-73.5 93.72,-151.4 170.02,-165.9 106.3,-20.2 150.23,48.8 237.12,81.5 176.27,66.2 340.32,-38.1 497.27,-98.8 79.62,-30.7 220,-72.4 299.23,-30.8 86.53,45.5 121.65,154.4 94.1,231.4 -28.69,80.1 -103.09,108.3 -94.29,200.7 7.48,77.4 71.47,117.3 100.26,184.9 80.17,188.7 -87.86,277.7 -159.99,418.5 -31.52,61.4 -58.22,128.6 -46.48,198.7 13.73,82.4 82.17,166.7 46.67,254.5 -31.71,78.7 -136.22,109.5 -172.38,185.5 -26.22,55.2 -12.21,142.7 -20.92,201.8 -46.58,318.1 -451.55,355.8 -699.57,334.6 -272.63,-23.3 -439.14,-311.1 -435.82,-566" /><path
         id="path252"
         style="fill:#f69575;fill-opacity:1;fill-rule:nonzero;stroke:none"
         d="m 4232.17,10476.2 c 0,0 165.37,-1146.5 145.02,-1584.7 0,0 -216.4,-119.7 -331.23,-11.4 0,0 -233.82,743.9 -317.5,1392.6 0,0 138.31,511 503.71,203.5" /><path
         id="path254"
         style="fill:#f69575;fill-opacity:1;fill-rule:nonzero;stroke:none"
         d="m 4379.46,8930.1 c 0,0 203.72,-776.5 312.2,-1106.1 0,0 -44.39,-93.2 -121.64,-44.6 -78.57,49.4 -556.15,1040.2 -513.55,1115.9 198.7,353.6 322.99,34.8 322.99,34.8" /><path
         id="path256"
         style="fill:#f69575;fill-opacity:1;fill-rule:nonzero;stroke:none"
         d="m 3855.5,10178.7 c 146.07,-53.9 308.51,19.9 362.94,164.7 54.24,144.8 -20.16,305.9 -166.23,359.7 -146.16,53.9 -308.6,-19.9 -362.94,-164.7 -54.34,-144.8 20.07,-305.9 166.23,-359.7" /><path
         id="path258"
         style="fill:#f69575;fill-opacity:1;fill-rule:nonzero;stroke:none"
         d="m 3732.91,9119.3 415.29,1273.1 c 60.39,184 -84.44,307 -84.44,307 l -581.33,226.7 h -414.34 l -579.15,-226.7 c 0,0 -144.84,-123 -84.54,-307 l 395.79,-1273.1 h 932.72" /><path
         id="path260"
         style="fill:#5dc1bb;fill-opacity:1;fill-rule:nonzero;stroke:none"
         d="m 2800.19,9119.3 h 932.72" /><path
         id="path262"
         style="fill:#f69575;fill-opacity:1;fill-rule:nonzero;stroke:none"
         d="m 3950.92,5651.9 c 0,0 -255.3,-2266.2 -271.3,-2348.8 -75.55,-51.3 -167.09,0 -167.09,0 0.85,113.4 -179.48,1120.6 -192.26,1298.1 -21.96,305.2 -67.3,586.2 125.53,1024.7 l 505.12,26" /><path
         id="path264"
         style="fill:#f69575;fill-opacity:1;fill-rule:nonzero;stroke:none"
         d="m 3133.5,5651.9 c 0,0 -255.3,-2266.2 -271.4,-2348.8 -90.97,-51.3 -166.99,0 -166.99,0 0.86,113.4 -179.48,1120.6 -192.26,1298.1 -21.96,305.2 -67.3,586.2 125.53,1024.7 l 505.12,26" /><path
         id="path266"
         style="fill:#8e2044;fill-opacity:1;fill-rule:nonzero;stroke:none"
         d="m 4001.09,8078.7 c 26.7,-268.1 -168.97,-507.2 -437.05,-533.8 -268.19,-26.7 -507.21,168.9 -533.91,437.1 -26.69,268.1 168.98,507.1 437.16,533.8 268.18,26.7 507.11,-169 533.8,-437.1" /><path
         id="path268"
         style="fill:#8e2044;fill-opacity:1;fill-rule:nonzero;stroke:none"
         d="m 3997.03,8101.3 c -27.17,461.1 -264.12,1018 -264.12,1018 h -932.72 c 0,0 -305.66,-475.4 -364.64,-1018 l 618.34,-397.1 h 428.54 c 0,0 401.85,89.6 514.6,397.1" /><path
         id="path270"
         style="fill:#8e2044;fill-opacity:1;fill-rule:nonzero;stroke:none"
         d="m 3411.34,8030.4 c 0,-269.5 -218.48,-487.9 -487.9,-487.9 -269.41,0 -487.89,218.4 -487.89,487.9 0,269.4 218.48,487.8 487.89,487.8 269.42,0 487.9,-218.4 487.9,-487.8" /><path
         id="path272"
         style="fill:#8e2044;fill-opacity:1;fill-rule:nonzero;stroke:none"
         d="m 4129.65,6306.9 c 71.09,906.1 -126.19,1728.3 -126.19,1728.3 0,0 -430.53,149.1 -842.03,4.1 -188.95,56.9 -462.91,98.6 -725.88,-8.9 0,0 -27.26,-884.8 7.38,-1723.5 0,0 644.94,-344.4 1686.72,0" /><path
         id="path274"
         style="fill:#f69575;fill-opacity:1;fill-rule:nonzero;stroke:none"
         d="m 3068.19,11338.3 v -412.2 h 416.42 v 412.2 h -416.42" /><path
         id="path276"
         style="fill:#e27462;fill-opacity:1;fill-rule:nonzero;stroke:none"
         d="m 3482.43,11027 v 311.3 h -414.24 v -259.9 c 273.48,-56.9 355.74,-51.4 414.24,-51.4" /><path
         id="path278"
         style="fill:#f69575;fill-opacity:1;fill-rule:nonzero;stroke:none"
         d="m 3472.02,11075.3 c 0,0 122.96,-14.4 196.52,213.6 0,0 192.64,483.5 -52.54,816.6 -94.56,128.4 -333.5,126.7 -468.96,77.1 -173.33,-63.5 -249.15,-245.2 -249.15,-415.7 l 69.1,-317.5 c 0,0 35.5,-150.6 143.89,-235.8 0,0 183.65,-140.7 361.14,-138.3" /><path
         id="path280"
         style="fill:#f2544d;fill-opacity:1;fill-rule:nonzero;stroke:none"
         d="m 3735.56,11793.4 c 71.38,705.5 -636.61,514.3 -636.61,514.3 -321.95,-132.8 -320.25,-367.6 -320.25,-367.6 0,-457 253.42,-637.9 253.42,-637.9 l 36.73,86.2 c -1.61,153.9 4.83,194.5 4.83,194.5 3.6,44.9 77.24,-20 73.17,38.4 0,0 1.04,62.1 36.64,125.2 33.13,58.6 -7.77,141.6 135.74,238 0,0 332.36,69.6 375.82,-84.8 l 40.51,-106.3" /><path
         id="path282"
         style="fill:#f69575;fill-opacity:1;fill-rule:nonzero;stroke:none"
         d="m 3096.77,11463 c -11.45,-8.8 -26.12,-13.8 -44.39,-13.6 -49.61,0.7 -90.78,47.1 -91.92,103.6 -1.14,56.2 37.95,101.4 87.47,100.6 23.47,-0.2 45.06,-10.9 61.43,-28 23.76,-24.8 24.53,-70.7 18.84,-102.4 -4.45,-25.3 -14.39,-47 -31.43,-60.2" /><path
         id="path284"
         style="fill:#eb7963;fill-opacity:1;fill-rule:nonzero;stroke:none"
         d="m 3068,11601.2 c -3.03,29.6 -62.86,1.3 -53.78,-15.3 5.21,-9.6 15.72,-16.7 23.96,-23.4 11.26,-9.2 16.84,-17.6 18.46,-32.3 0.19,-1.8 0.56,-6.9 -1.24,-8.1 -7.75,-5.4 -33.13,23.5 -38.71,29.6 -10.98,12 -12.5,32.5 -7.2,47.4 5.59,15.7 16,23.2 32.94,22.2 13.35,-0.9 27.08,-1.7 26.32,-18.5 -0.09,-0.4 -0.66,-3.1 -0.75,-1.6" /><path
         id="path286"
         style="fill:#eb7963;fill-opacity:1;fill-rule:nonzero;stroke:none"
         d="m 3048.78,11570.5 c 6.24,6.2 12.21,1.1 18.55,-3.6 5.87,-4.3 9.19,-10.5 10.7,-17.3 3.41,-15.5 1.42,-36.1 -7.48,-49.6 -7.1,-10.7 -19.03,-17.3 -32.09,-16.9 -17.98,0.4 -23.38,16.3 -24.05,31.6 -0.19,4 -0.56,13.7 3.41,16.2 4.36,2.8 7.39,-3.9 10.32,-6.8 3.98,-3.8 9.94,-5.3 15.25,-5.8 10.31,-0.8 20.35,4.4 26.88,12 1.04,1.3 2.08,3 2.74,4.6 -0.09,-9.9 -0.66,-12.1 -1.7,-6.6 -0.76,2.5 -1.89,4.8 -3.31,7 -4.17,6.9 -11.27,11.6 -15.9,18.2 -2.28,3.1 -6.45,13.8 -3.32,17" /><path
         id="path288"
         style="fill:#8e2044;fill-opacity:1;fill-rule:nonzero;stroke:none"
         d="m 3732.91,9119.3 c 0,0 -9.56,-2.5 -26.89,-6.4 3.23,0.8 6.26,1.5 9.09,2.1 -3.21,-0.7 -6.15,-1.4 -9.09,-2.1 -104.03,-23.5 -497.54,-98.3 -905.83,6.4 l -320.34,761 c 55.57,7.7 219.15,124.8 259.19,213.3 95.71,211.8 154.3,465 61.15,727.7 l 107.35,41.9 c 0,0 187.62,-709.8 574.89,-702.2 0,0 189.05,-38.8 161.68,702 l 132.16,-51.5 177.59,-591.9 c 0,0 109.34,-229.3 0,-423.2 L 3723.35,9117" /><path
         id="path290"
         style="fill:#f03e58;fill-opacity:1;fill-rule:nonzero;stroke:none"
         d="m 3718.72,9115.9 c 1.41,0.4 3.11,0.8 4.63,1.1 -1.42,-0.3 -3.03,-0.7 -4.63,-1.1" /><path
         id="path292"
         style="fill:#f69575;fill-opacity:1;fill-rule:nonzero;stroke:none"
         d="m 4674.43,7838.4 116.34,-88.5 104.32,-115.8 c -39.09,-34.8 -107.72,38.9 -107.72,38.9 84.34,-132.6 135.08,-220.8 135.08,-220.8 12.03,-50 -28.21,-33.3 -28.21,-33.3 -49.32,54.2 -121.55,163.7 -121.55,163.7 30.77,-73.8 96.47,-220.2 96.47,-220.2 2.27,-44.7 -32.76,-22.8 -32.76,-22.8 -62.67,64.9 -114.44,210.7 -114.44,210.7 26.69,-81.3 58.78,-183.4 58.78,-183.4 2.94,-36.2 -24.61,-27.6 -24.61,-27.6 -30.01,9.2 -92.67,191.7 -92.67,191.7 l 5.77,-72.4 c 6.15,-74 -29.63,-55 -29.63,-55 l -15.53,40.8 c -39.28,106.2 -38.43,215 -38.43,215 l -18.08,135.9 106.87,43.1" /><path
         id="path294"
         style="fill:#f69575;fill-opacity:1;fill-rule:nonzero;stroke:none"
         d="m 2862.29,3305.1 c 0,0 43.55,-149.8 93.53,-191.1 49.98,-41.5 239.12,-100.2 239.12,-100.2 l 104.32,-13.1 c 0,0 73.27,-50.6 -124.3,-108.8 -197.65,-58.1 -549.04,100.3 -549.04,100.3 l 69.29,312.9 h 167.08" /><path
         id="path296"
         style="fill:#6f4323;fill-opacity:1;fill-rule:nonzero;stroke:none"
         d="m 2613.23,2964.1 c 12.31,-5.6 259.57,-115.8 460.64,-115.8 39,0 76.29,4.1 109.81,14 101.76,30 152.21,63.4 158.93,105.2 4.36,27 -30.1,37.1 -43.35,33.2 l -17.52,-23.2 c 0,-0.2 -8.99,-24.6 -115.49,-56 -184.4,-54.2 -529.64,102.1 -533.14,103.6 0,0 -11.17,-20.3 -19.88,-61" /><path
         id="path298"
         style="fill:#6f4323;fill-opacity:1;fill-rule:nonzero;stroke:none"
         d="m 3081.44,3053.1 c 0,0 -98.07,-58.1 -112.28,-165.1 0,0 94.86,-21.4 161.22,-8.9 0,0 1.32,89.5 76.21,133.2 0,0 -66.37,30.5 -125.15,40.8" /><path
         id="path300"
         style="fill:#6f4323;fill-opacity:1;fill-rule:nonzero;stroke:none"
         d="m 2961.88,3109.4 c 0,0 -115.3,-45.2 -148.06,-153.2 0,0 13.73,-5.5 54.25,-15.4 0,0 49.7,107.6 137.07,144.3 l -43.26,24.3" /><path
         id="path302"
         style="fill:#6f4323;fill-opacity:1;fill-rule:nonzero;stroke:none"
         d="m 2650.53,3114.2 c 0,0 73.64,-70.7 230.41,-113.7 l 28.5,43.6 c 0,0 -211.67,59.1 -246.13,128 0,0 -15.24,-25.7 -12.78,-57.9" /><path
         id="path304"
         style="fill:#f69575;fill-opacity:1;fill-rule:nonzero;stroke:none"
         d="m 3683.69,3314.6 c 0,0 43.45,-149.7 93.43,-191.1 50.08,-41.4 239.12,-100.1 239.12,-100.1 l 104.32,-13.1 c 0,0 73.27,-50.6 -124.3,-108.9 -197.56,-58.1 -549.04,100.4 -549.04,100.4 l 69.38,312.8 h 167.09" /><path
         id="path306"
         style="fill:#6f4323;fill-opacity:1;fill-rule:nonzero;stroke:none"
         d="m 3434.53,2973.7 c 12.4,-5.6 259.57,-115.8 460.73,-115.8 39,0 76.2,4.1 109.71,14 101.76,30 152.32,63.4 159.04,105.2 4.35,27 -30.1,37.1 -43.45,33.2 l -17.42,-23.2 c -0.09,-0.3 -8.99,-24.7 -115.59,-56 -184.31,-54.3 -529.63,102 -533.04,103.5 0,0 -11.18,-20.3 -19.98,-60.9" /><path
         id="path308"
         style="fill:#6f4323;fill-opacity:1;fill-rule:nonzero;stroke:none"
         d="m 3902.83,3062.7 c 0,0 -98.06,-58.1 -112.27,-165.1 0,0 94.85,-21.3 161.12,-8.9 0,0 1.33,89.4 76.2,133.1 0,0 -66.26,30.5 -125.05,40.9" /><path
         id="path310"
         style="fill:#6f4323;fill-opacity:1;fill-rule:nonzero;stroke:none"
         d="m 3783.18,3118.9 c 0,0 -115.21,-45.2 -147.96,-153.2 0,0 13.72,-5.5 54.24,-15.3 0,0 49.69,107.5 136.98,144.3 l -43.26,24.2" /><path
         id="path312"
         style="fill:#6f4323;fill-opacity:1;fill-rule:nonzero;stroke:none"
         d="m 3471.83,3123.8 c 0,0 73.65,-70.7 230.51,-113.8 l 28.49,43.7 c 0,0 -211.67,59 -246.13,127.9 0,0 -15.33,-25.6 -12.87,-57.8" /><path
         id="path314"
         style="fill:#f69575;fill-opacity:1;fill-rule:nonzero;stroke:none"
         d="m 2257.11,10453.1 c 0,0 -165.38,-1146.5 -145.03,-1584.7 0,0 216.41,-119.8 331.23,-11.5 0,0 263.45,792.4 347.13,1441.2 0,0 -167.93,462.4 -533.33,155" /><path
         id="path316"
         style="fill:#f69575;fill-opacity:1;fill-rule:nonzero;stroke:none"
         d="m 2443.31,8856.9 c 0,0 -166.61,-785.2 -217.63,-1128.4 0,0 -81.51,-63.4 -128.74,14.7 -48,79.4 -29.92,1179.2 42.13,1227.8 336.33,226.6 304.24,-114.1 304.24,-114.1" /><path
         id="path318"
         style="fill:#e1886a;fill-opacity:1;fill-rule:nonzero;stroke:none"
         d="m 2195.48,7491.9 -37.11,-135.9 58.5,-193.1 c 0,0 -37.67,-26.3 -68.15,38.4 l -53.58,159.8 28.78,154.7 71.56,-23.9" /><path
         id="path320"
         style="fill:#e1886a;fill-opacity:1;fill-rule:nonzero;stroke:none"
         d="m 2152.98,7449.6 -44.59,-133.6 47.62,-196.1 c 0,0 -39.1,-24.2 -65.89,42.1 l -44.58,162.6 37.39,152.7 70.05,-27.7" /><path
         id="path322"
         style="fill:#f69575;fill-opacity:1;fill-rule:nonzero;stroke:none"
         d="m 1994.7,7437.5 44.31,157.7 51.49,196.3 126.95,2.3 17.6,-215.5 -2.74,-111.8 -5.59,-152.3 0.85,-49.6 c 0,0 -40.51,-8 -61.62,73.3 l -14.87,146.1 -67.49,-105.4 22.24,-289.3 c 0,0 -23.94,-13.6 -50.16,28.7 l -70.15,288 9.18,31.5" /><path
         id="path324"
         style="fill:#f69575;fill-opacity:1;fill-rule:nonzero;stroke:none"
         d="m 2633.77,10155.5 c -146.06,-53.8 -308.5,19.9 -362.84,164.8 -54.34,144.8 20.07,305.9 166.13,359.7 146.17,53.9 308.61,-19.9 362.94,-164.7 54.34,-144.8 -20.07,-305.9 -166.23,-359.8" /><path
         id="path326"
         style="fill:#f2544d;fill-opacity:1;fill-rule:nonzero;stroke:none"
         d="m 3713.31,11929.1 c -90.96,0.5 -181.65,34 -244.79,-46.4 -40.61,-51.7 -25.09,-109.5 -40.33,-169.5 -39.85,-157.3 -212.99,-103 -268.37,-246.8 -51.78,-134.6 48.28,-315.2 -28.68,-439.5 -74.22,-120.1 -80.19,-208.3 -37.02,-375.8 17.04,-66.1 75.54,-128.7 51.4,-202.7 -21.11,-64.7 -19.3,-51.6 -77.33,-71.3 -128.56,-43.6 -322.81,19.9 -416.14,110.1 -139.82,135.1 -29.16,359.4 73.74,479.6 76.58,89.5 174.27,212.9 141.14,337.7 -14.1,53 -29.25,91.1 -40.04,146.5 -11.17,56.9 -24.14,124 -40.71,177 -25.28,80.7 -30.67,99.5 24.9,177.8 47.99,67.6 89.46,71.6 146.44,109.5 102.05,67.9 142.19,276.1 269.98,266.4 114.07,-8.6 228.42,-28.5 347.04,-28.9 l 138.77,-223.7" /><g
         transform="scale(1.16456)"
         id="g328"><path
           id="path330"
           style="fill:#293d9b;fill-opacity:1;fill-rule:nonzero;stroke:none"
           d="m 16186.2,10367.7 c -22.6,-100.1 -65.2,-154.9 -65.1,-264.9 0.2,-92.4 31.2,-203.03 25.6,-288.17 -5.8,-87.92 -88.3,-134.92 -56,-232.54 23.7,-71.96 93.2,-141.26 122.3,-209.7 80,-187.19 -42.8,-507.66 28.9,-686.26 45.8,-114.38 58.1,-139.63 -78.9,-202.83 -104.8,-48.34 -226.7,11.68 -350.2,18.38 -111.9,6.18 -221.8,38.47 -334.1,27.65 -92.1,-8.84 -122.2,-40.79 -185.9,34.69 -111.4,131.89 58.9,579.79 53.8,750.93 -3.7,126.14 -46.5,251.77 9.3,370.54 74.8,159.91 209.4,220.06 184.5,424.61 -17.7,145.7 -115.2,266.8 -18.8,413.2 40.1,60.8 132,75.2 167.2,136.5 20.2,35.7 -2.9,79.4 9.9,104.2 20.9,40.4 101.5,85.2 144.8,97.1 250,68.4 385.1,-304.3 342.7,-493.4" /></g><g
         transform="scale(1.1263)"
         id="g332"><path
           id="path334"
           style="fill:#293d9b;fill-opacity:1;fill-rule:nonzero;stroke:none"
           d="m 15618.3,10765.7 c -1.8,-186.3 57.5,-325.7 -28.7,-505.2 -37.1,-77.1 -85.7,-116.8 -86.5,-207.6 -0.9,-96.85 43.5,-156.43 -31.7,-240.77 -61.7,-68.99 -141.9,-76.99 -167.2,-161.86 -25.1,-84.44 17.1,-181.75 -10.7,-267.25 -20,-60.82 -112.9,-156.97 -71.5,-228.45 39.6,-68.45 177.9,-58.77 247.2,-78.31 83,-23.44 138.9,-100.24 232.6,-110.27 149.8,-15.8 249.5,104.59 264.1,226.4 21,174.12 -15.5,317.24 -52.3,487.44 -31.6,146.59 36.8,217.17 101.8,344.47 133,260.6 -83.2,478.8 -20.6,732 33.1,133.8 305.2,538.2 149.6,554.8 -311.1,33.4 -524.6,-360.7 -526.1,-545.4" /></g><g
         transform="scale(1.0904)"
         id="g336"><path
           id="path338"
           style="fill:#f69575;fill-opacity:1;fill-rule:nonzero;stroke:none"
           d="m 15817.7,9897.33 c 0,0 -158.4,-1097.85 -138.9,-1517.51 0,0 207.2,-114.73 317.2,-11 0,0 223.8,712.39 304,1333.72 0,0 -132.3,489.26 -482.3,194.79" /></g><g
         transform="scale(1.07212)"
         id="g340"><path
           id="path342"
           style="fill:#f69575;fill-opacity:1;fill-rule:nonzero;stroke:none"
           d="m 15944.1,8560.36 c 0,0 -198.6,-756.27 -304.2,-1077.31 0,0 43.3,-90.66 118.5,-43.56 76.5,48.22 541.6,1013.23 500.2,1087.1 -193.6,344.27 -314.5,33.77 -314.5,33.77" /></g><g
         transform="scale(1.09639)"
         id="g344"><path
           id="path346"
           style="fill:#f69575;fill-opacity:1;fill-rule:nonzero;stroke:none"
           d="m 16090,9559.99 c -139.1,-51.35 -293.8,18.97 -345.6,156.88 -51.8,137.9 19.1,291.33 158.3,342.53 139,51.4 293.9,-18.8 345.6,-156.83 51.7,-138 -19.2,-291.32 -158.3,-342.58" /></g><g
         transform="scale(1.1791)"
         id="g348"><path
           id="path350"
           style="fill:#f69575;fill-opacity:1;fill-rule:nonzero;stroke:none"
           d="m 15070,7971.77 -367.7,1127.47 c -53.6,162.92 74.7,271.82 74.7,271.82 l 514.7,200.75 h 367.1 l 512.8,-200.75 c 0,0 128.4,-108.9 74.8,-271.82 L 15895.9,7971.77 H 15070" /></g><g
         transform="scale(1.14987)"
         id="g352"><path
           id="path354"
           style="fill:#5dc1bb;fill-opacity:1;fill-rule:nonzero;stroke:none"
           d="m 16300,8174.44 h -846.9" /></g><g
         transform="scale(1.12087)"
         id="g356"><path
           id="path358"
           style="fill:#f69575;fill-opacity:1;fill-rule:nonzero;stroke:none"
           d="m 15649.7,5155.57 c 0,0 237.9,-2111.4 252.9,-2188.22 70.3,-47.82 155.5,0 155.5,0 -0.7,105.46 167.2,1043.93 179.2,1209.25 20.5,284.33 62.7,546.09 -116.9,954.53 l -470.7,24.44" /></g><g
         transform="scale(1.17323)"
         id="g360"><path
           id="path362"
           style="fill:#f69575;fill-opacity:1;fill-rule:nonzero;stroke:none"
           d="m 15678.8,4925.45 c 0,0 227.2,-2017.16 241.6,-2090.55 80.9,-45.68 148.5,0 148.5,0 -0.7,100.75 159.9,997.33 171.3,1155.27 19.6,271.64 59.8,521.72 -111.8,911.93 l -449.6,23.35" /></g><g
         transform="scale(1.13685)"
         id="g364"><path
           id="path366"
           style="fill:#161c22;fill-opacity:1;fill-rule:nonzero;stroke:none"
           d="m 15383.6,7312.07 c -24.5,-246.21 155.3,-465.77 401.6,-490.4 246.2,-24.36 465.8,155.35 490.3,401.64 24.5,246.12 -155.3,465.85 -401.4,490.31 -246.3,24.54 -466,-155.26 -490.5,-401.55" /></g><g
         transform="scale(1.13514)"
         id="g368"><path
           id="path370"
           style="fill:#212048;fill-opacity:1;fill-rule:nonzero;stroke:none"
           d="m 16003.4,5021.93 c 0,0 -185.5,-87.92 -387.6,-70.56 0,0 -191.9,-43.7 -249.6,213.1 -227.1,1011.41 38.5,2118.68 38.5,2118.68 0,0 485.4,168.26 895.3,-48.98 0,0 -114.1,-1357.01 -296.6,-2212.24" /></g><g
         transform="scale(1.17323)"
         id="g372"><path
           id="path374"
           style="fill:#29295e;fill-opacity:1;fill-rule:nonzero;stroke:none"
           d="m 14910.3,7105.5 c 24.2,410.4 235,906.12 235,906.12 h 830 c 0,0 272.3,-423.1 324.7,-906.12 l -550.4,-353.47 h -381.5 c 0,0 -357.5,79.78 -457.8,353.47" /></g><g
         transform="scale(1.17323)"
         id="g376"><path
           id="path378"
           style="fill:#29295e;fill-opacity:1;fill-rule:nonzero;stroke:none"
           d="m 15431.5,7042.34 c 0,-239.77 194.4,-434.36 434.2,-434.36 239.9,0 434.3,194.59 434.3,434.36 0,239.76 -194.4,434.18 -434.3,434.18 -239.8,0 -434.2,-194.42 -434.2,-434.18" /></g><g
         transform="scale(1.17621)"
         id="g380"><path
           id="path382"
           style="fill:#29295e;fill-opacity:1;fill-rule:nonzero;stroke:none"
           d="m 16206.3,4846.59 c 0,0 -106.3,-108.91 -302.1,-111.63 0,0 -258.6,-63.08 -338.5,178.03 -315.1,949.49 -166,2033.14 -166,2033.14 0,0 444.9,247.83 859.1,78.39 0,0 41.2,-1339.22 -52.5,-2177.93" /></g><g
         transform="scale(1.13272)"
         id="g384"><path
           id="path386"
           style="fill:#f7906e;fill-opacity:1;fill-rule:nonzero;stroke:none"
           d="m 15916,10335.3 v -379.93 h 384 v 379.93 h -384" /></g><g
         transform="scale(1.13257)"
         id="g388"><path
           id="path390"
           style="fill:#e27462;fill-opacity:1;fill-rule:nonzero;stroke:none"
           d="m 16300,10049.7 v 286.9 h -382 V 10097 c 252.1,-52.4 328,-47.3 382,-47.3" /></g><g
         transform="scale(1.15683)"
         id="g392"><path
           id="path394"
           style="fill:#f69575;fill-opacity:1;fill-rule:nonzero;stroke:none"
           d="m 15948.8,9882.49 c 0,0 110.9,-13.13 177.3,192.81 0,0 173.9,436.4 -47.5,737.1 -85.3,115.9 -301,114.3 -423.1,69.6 -156.6,-57.2 -225,-221.3 -225,-375.2 l 62.3,-286.6 c 0,0 32,-135.9 129.9,-212.9 0,0 165.9,-126.93 326.1,-124.81" /></g><g
         transform="scale(1.15336)"
         id="g396"><path
           id="path398"
           style="fill:#293d9b;fill-opacity:1;fill-rule:nonzero;stroke:none"
           d="m 16235.2,10562.3 c 64.8,638.9 -576.3,465.6 -576.3,465.6 -291.6,-120.1 -289.8,-332.7 -289.8,-332.7 0,-413.9 229.3,-577.6 229.3,-577.6 l 33.4,78.1 c -1.6,139.3 4.2,176 4.2,176 3.2,40.8 70.1,-18 66.2,34.9 0,0 0.9,56.1 33.3,113.3 29.9,53 -7,128.2 122.9,215.5 0,0 300.9,63 340.2,-76.8 l 36.6,-96.3" /></g><g
         transform="scale(1.11024)"
         id="g400"><path
           id="path402"
           style="fill:#f69575;fill-opacity:1;fill-rule:nonzero;stroke:none"
           d="m 16265.1,10661.8 c -10.8,-8.3 -24.7,-13 -41.7,-12.6 -46.8,0.6 -85.5,44.2 -86.4,97.2 -1.4,53 35.6,95.4 82.2,94.9 22,-0.4 42.4,-10.4 57.7,-26.5 22.5,-23.4 23.1,-66.6 17.7,-96.3 -4.2,-23.8 -13.4,-44.2 -29.5,-56.7" /></g><g
         transform="scale(1.10611)"
         id="g404"><path
           id="path406"
           style="fill:#eb7963;fill-opacity:1;fill-rule:nonzero;stroke:none"
           d="m 16298.6,10832.1 c -2.7,28 -59.3,1.2 -50.8,-14.4 5.1,-9.1 15,-15.8 22.7,-22.1 10.6,-8.8 15.8,-16.6 17.5,-30.6 0.1,-1.5 0.4,-6.5 -1.2,-7.6 -7.4,-5.1 -31.3,22.2 -36.6,28 -10.2,11.4 -11.7,30.7 -6.8,44.7 5.2,14.9 15.1,22 31,21 12.8,-0.8 25.6,-1.7 25,-17.5 -0.1,-0.3 -0.6,-2.9 -0.8,-1.5" /></g><g
         transform="scale(1.10688)"
         id="g408"><path
           id="path410"
           style="fill:#eb7963;fill-opacity:1;fill-rule:nonzero;stroke:none"
           d="m 16269.1,10795.6 c 6,5.9 11.5,1 17.5,-3.3 5.5,-4.1 8.7,-9.9 10.1,-16.5 3.3,-14.5 1.4,-33.9 -7.1,-46.7 -6.6,-10.1 -17.8,-16.3 -30.3,-16 -16.8,0.4 -22.1,15.4 -22.6,29.9 -0.2,3.8 -0.7,12.9 3.2,15.3 4.3,2.6 7.1,-3.8 9.7,-6.4 3.9,-3.6 9.4,-5.1 14.5,-5.5 9.6,-0.9 19.2,4.1 25.2,11.3 1.1,1.3 2.1,2.8 2.7,4.3 -0.1,-9.4 -0.6,-11.4 -1.6,-6.3 -0.8,2.5 -2,4.7 -3.2,6.7 -3.9,6.5 -10.5,11 -15,17.2 -2,2.9 -6,13 -3.1,16" /></g><g
         transform="scale(1.1704)"
         id="g412"><path
           id="path414"
           style="fill:#6e4caa;fill-opacity:1;fill-rule:nonzero;stroke:none"
           d="m 14881.4,8817.17 126,-628.25 c 0,0 6.9,-117.74 174.6,-157.9 0,0 8.5,-2.39 23.9,-5.81 -3,0.69 -5.4,1.37 -8,1.88 2.8,-0.6 5.4,-1.28 8,-1.88 92.8,-20.84 443.9,-87.74 808.1,5.81 150.8,12.56 214.6,193.87 214.6,193.87 l 71.4,484.96 c -63.4,54 -111.1,128.93 -146.9,208.05 -85.3,188.99 -219.3,224.97 -67.7,603.64 l -167.1,65.38 c 0,0 -89.1,-187.9 -330,-186.79 0,0 -179.6,-34.09 -327.1,186.61 l -194,-75.71 -179.6,-577.49 c 0,0 -18,-57.59 -6.2,-116.37" /></g><g
         transform="scale(1.09103)"
         id="g416"><path
           id="path418"
           style="fill:#f03e58;fill-opacity:1;fill-rule:nonzero;stroke:none"
           d="m 16300,8611.95 c -1.5,0.27 -3,0.55 -4.5,0.91 1.4,-0.27 2.8,-0.64 4.5,-0.91" /></g><g
         transform="scale(1.03664)"
         id="g420"><path
           id="path422"
           style="fill:#f69575;fill-opacity:1;fill-rule:nonzero;stroke:none"
           d="m 16192.4,7776.83 -117.1,-89.24 -105.2,-116.62 c 39.3,-34.92 108.5,39.26 108.5,39.26 -84.9,-133.6 -136,-222.45 -136,-222.45 -12.1,-50.45 28.5,-33.47 28.5,-33.47 49.7,54.5 122.4,164.95 122.4,164.95 -31,-74.37 -97.4,-221.77 -97.4,-221.77 -2,-45.14 33.2,-23.15 33.2,-23.15 63,65.31 115.2,212.22 115.2,212.22 -26.8,-81.8 -59.2,-184.63 -59.2,-184.63 -3,-36.37 24.9,-27.88 24.9,-27.88 30.2,9.45 93.2,193.12 93.2,193.12 l -5.8,-72.93 c -6.2,-74.37 30,-55.37 30,-55.37 l 15.6,41.1 c 39.6,107.08 38.5,216.56 38.5,216.56 l 18.3,136.89 -107.6,43.41" /></g><g
         transform="scale(1.16104)"
         id="g424"><path
           id="path426"
           style="fill:#f69575;fill-opacity:1;fill-rule:nonzero;stroke:none"
           d="m 16087.4,2866.32 c 0,0 -39,-134.62 -84,-171.92 -45.1,-37.12 -215,-90 -215,-90 l -94,-11.8 c 0,0 -65.9,-45.48 111.8,-97.85 177.7,-52.28 493.8,90.27 493.8,90.27 l -62.4,281.3 h -150.2" /></g><g
         transform="scale(1.16185)"
         id="g428"><path
           id="path430"
           style="fill:#6f4323;fill-opacity:1;fill-rule:nonzero;stroke:none"
           d="m 16300,2557.91 c -11,-4.99 -233.2,-104.06 -413.9,-104.06 -35.2,0 -68.6,3.7 -98.7,12.57 -91.5,27.02 -136.9,56.98 -142.9,94.5 -4,24.28 27.1,33.4 39,29.87 l 15.8,-20.83 c 0.1,-0.26 7.9,-22.2 103.6,-50.26 165.8,-48.81 476.2,91.75 479.1,92.95 0,0 10.3,-18.16 18,-54.74" /></g><g
         transform="scale(1.13904)"
         id="g432"><path
           id="path434"
           style="fill:#6f4323;fill-opacity:1;fill-rule:nonzero;stroke:none"
           d="m 16197.3,2690.77 c 0,0 89.7,-53.38 102.7,-151.44 0,0 -86.9,-19.5 -147.8,-8.08 0,0 -1,82 -69.8,122.03 0,0 60.9,27.92 114.9,37.49" /></g><g
         transform="scale(1.149)"
         id="g436"><path
           id="path438"
           style="fill:#6f4323;fill-opacity:1;fill-rule:nonzero;stroke:none"
           d="m 16165.5,2718.54 c 0,0 104.6,-41.08 134.5,-139.17 0,0 -12.4,-5.13 -49.3,-14.1 0,0 -45.1,97.83 -124.5,131.25 l 39.3,22.02" /></g><g
         transform="scale(1.15962)"
         id="g440"><path
           id="path442"
           style="fill:#6f4323;fill-opacity:1;fill-rule:nonzero;stroke:none"
           d="m 16297.7,2697.95 c 0,0 -66.2,-63.64 -207.5,-102.36 l -25.6,39.24 c 0,0 190.6,53.21 221.6,115.21 0,0 13.8,-23.02 11.5,-52.09" /></g><g
         transform="scale(1.10842)"
         id="g444"><path
           id="path446"
           style="fill:#f69575;fill-opacity:1;fill-rule:nonzero;stroke:none"
           d="m 16077.3,3011.48 c 0,0 -41,-141 -88,-180.07 -47.4,-39.06 -225.5,-94.37 -225.5,-94.37 l -98.2,-12.36 c 0,0 -69,-47.63 117.1,-102.4 186.2,-54.76 517.3,94.46 517.3,94.46 l -65.3,294.74 h -157.4" /></g><g
         transform="scale(1.10923)"
         id="g448"><path
           id="path450"
           style="fill:#6f4323;fill-opacity:1;fill-rule:nonzero;stroke:none"
           d="m 16300,2688.25 c -11.7,-5.22 -244.3,-108.99 -433.7,-108.99 -36.8,0 -71.9,3.88 -103.3,13.25 -95.8,28.13 -143.4,59.68 -149.7,98.9 -4.1,25.51 28.3,35.07 40.8,31.28 l 16.5,-21.81 c 0,0 8.4,-23.17 108.8,-52.74 173.6,-51.03 498.6,96.19 501.8,97.45 0,0 10.4,-19.11 18.8,-57.34" /></g><g
         transform="scale(1.08642)"
         id="g452"><path
           id="path454"
           style="fill:#6f4323;fill-opacity:1;fill-rule:nonzero;stroke:none"
           d="m 16192.1,2830.3 c 0,0 94.3,-55.87 107.9,-158.78 0,0 -91.1,-20.44 -154.8,-8.47 0,0 -1.4,85.88 -73.3,128.04 0,0 63.7,29.27 120.2,39.21" /></g><g
         transform="scale(1.09638)"
         id="g456"><path
           id="path458"
           style="fill:#6f4323;fill-opacity:1;fill-rule:nonzero;stroke:none"
           d="m 16159.2,2858.13 c 0,0 109.6,-43.05 140.8,-145.93 0,0 -13.1,-5.2 -51.7,-14.51 0,0 -47.3,102.43 -130.4,137.37 l 41.3,23.07" /></g><g
         transform="scale(1.107)"
         id="g460"><path
           id="path462"
           style="fill:#6f4323;fill-opacity:1;fill-rule:nonzero;stroke:none"
           d="m 16297.7,2835.32 c 0,0 -69.6,-66.76 -217.4,-107.41 l -27,41.2 c 0,0 199.8,55.73 232.2,120.77 0,0 14.5,-24.11 12.2,-54.56" /></g><g
         transform="scale(1.13577)"
         id="g464"><path
           id="path466"
           style="fill:#293d9b;fill-opacity:1;fill-rule:nonzero;stroke:none"
           d="m 16056.6,10791.9 c -17.7,-68.4 -11.7,-162.9 -1.5,-229.5 26,-172.7 40.5,-279.5 -28.7,-442.3 -71.5,-168.28 22.8,-299.07 40.4,-472.17 11.6,-115.25 24.9,-187.01 -47.4,-274.17 -66.8,-80.74 -90.3,-102.84 -75.5,-208.5 11.1,-79.5 35.8,-149.94 56.5,-229.18 30.2,-116.66 -4.4,-133.83 -113.5,-167.56 -171.2,-53 -314.3,48.08 -304,234.74 -169.6,5.9 -315.9,140.08 -208.4,285.35 59.3,79.95 54.6,97.91 48.6,188.6 -7.4,112.35 30.6,129.52 112,191.5 60.7,46.31 129,106.01 134.3,186.75 5.4,81.42 -54.6,148.04 -37.8,236.34 13.3,69.8 66.1,124.4 56.8,198.5 -10.2,80.7 -68.3,122.1 -59.3,207.9 8.3,78.7 55.3,158.6 59.3,245.9 5,109.8 -11,165.7 85,224.8 85.8,52.9 214.7,175.9 325.5,144.8 201.1,-56.3 -18,-228.3 -42.3,-321.8" /></g><g
         transform="scale(1.04505)"
         id="g468"><path
           id="path470"
           style="fill:#deb2a7;fill-opacity:1;fill-rule:nonzero;stroke:none"
           d="m 15304.6,4191.67 h 995.4 l -497.7,-1463.38 -497.7,1463.38" /></g><g
         transform="scale(1.02321)"
         id="g472"><path
           id="path474"
           style="fill:#1d2c51;fill-opacity:1;fill-rule:nonzero;stroke:none"
           d="m 15979,3258.36 160.5,-471.85 160.5,471.85 h -321" /></g><g
         transform="scale(1.00251)"
         id="g476"><path
           id="path478"
           style="fill:#3959a2;fill-opacity:1;fill-rule:nonzero;stroke:none"
           d="m 16300,4369.54 h -345.9 V 14039.9 H 16300 V 4369.54" /></g><g
         transform="scale(1.02378)"
         id="g480"><path
           id="path482"
           style="fill:#335091;fill-opacity:1;fill-rule:nonzero;stroke:none"
           d="m 16300,4278.75 h -338.7 V 13748.2 H 16300 V 4278.75" /></g><g
         transform="scale(1.04505)"
         id="g484"><path
           id="path486"
           style="fill:#2c447d;fill-opacity:1;fill-rule:nonzero;stroke:none"
           d="m 16300,4191.67 h -331.8 V 13468.4 H 16300 V 4191.67" /></g><g
         transform="scale(1.00251)"
         id="g488"><path
           id="path490"
           style="fill:#3959a2;fill-opacity:1;fill-rule:nonzero;stroke:none"
           d="m 16202.9,4143.21 97.1,226.33 h -345.9 l 91.3,-226.33 c 0,0 74.2,-106.54 157.5,0" /></g><g
         transform="scale(1.02378)"
         id="g492"><path
           id="path494"
           style="fill:#335091;fill-opacity:1;fill-rule:nonzero;stroke:none"
           d="m 16205,4057.13 95,221.62 h -338.7 l 89.4,-221.62 c 0,0 72.6,-104.32 154.3,0" /></g><g
         transform="scale(1.04505)"
         id="g496"><path
           id="path498"
           style="fill:#2c447d;fill-opacity:1;fill-rule:nonzero;stroke:none"
           d="m 16206.9,3974.55 93.1,217.12 h -331.8 l 87.7,-217.12 c 0,0 71,-102.2 151,0" /></g><g
         transform="scale(1.04505)"
         id="g500"><path
           id="path502"
           style="fill:#d3d2d2;fill-opacity:1;fill-rule:nonzero;stroke:none"
           d="m 16300,13468.4 h -995.4 v 329.5 h 995.4 v -329.5" /></g><g
         transform="scale(1.04505)"
         id="g504"><path
           id="path506"
           style="fill:#6eb1cd;fill-opacity:1;fill-rule:nonzero;stroke:none"
           d="m 16300,13928.3 h -995.4 v -130.4 h 995.4 v 130.4" /></g><g
         transform="scale(1.04521)"
         id="g508"><path
           id="path510"
           style="fill:#39a0ca;fill-opacity:1;fill-rule:nonzero;stroke:none"
           d="m 16300,13929.6 v 340.4 c 0,233.4 -189.1,422.6 -422.6,422.6 h -152.6 c -233.3,0 -422.6,-189.2 -422.6,-422.6 v -340.4 h 997.8" /></g><g
         transform="scale(1.04521)"
         id="g512"><path
           id="path514"
           style="fill:#3089bc;fill-opacity:1;fill-rule:nonzero;stroke:none"
           d="m 16087.4,14054 c -98.4,-5.5 -197.7,-6.9 -296.2,-0.6 -47.3,3.1 -106.6,2.6 -148.7,27.8 -99.7,59.5 -79.8,216.6 -57.5,313.4 31,134.8 106.3,208.2 192.4,298 h -52.6 c -233.3,0 -422.6,-189.2 -422.6,-422.6 v -340.4 h 997.8 v 133.3 c -71.6,-5.8 -144.5,-5 -212.6,-8.9" /></g><g
         transform="scale(1.18336)"
         id="g516"><path
           id="path518"
           style="fill:#f69575;fill-opacity:1;fill-rule:nonzero;stroke:none"
           d="m 16300,8991.46 c 0,0 -368.4,-912.4 -579.4,-1236.9 0,0 -235.7,-28.73 -274.6,104.87 0,0 156.3,745.5 382.2,1276.71 0,0 331,252.5 471.8,-144.68" /></g><g
         transform="scale(1.15483)"
         id="g520"><path
           id="path522"
           style="fill:#f69575;fill-opacity:1;fill-rule:nonzero;stroke:none"
           d="m 15990.9,8162.81 c 0,0 -724.5,-45.02 -1038.2,-45.11 0,0 -67.4,-64.51 -3.8,-117.07 64.7,-53.43 1050.9,-183.06 1103.8,-125.13 247.3,270.86 -61.8,287.31 -61.8,287.31" /></g><g
         transform="scale(1.1871)"
         id="g524"><path
           id="path526"
           style="fill:#f69575;fill-opacity:1;fill-rule:nonzero;stroke:none"
           d="m 15830.5,8904.99 c 86.8,-105.88 243,-122.14 348.8,-36.56 105.5,85.76 120.7,241.01 33.9,346.9 -87.1,105.97 -243.1,122.23 -348.8,36.56 -105.6,-85.84 -120.8,-241.09 -33.9,-346.9" /></g><g
         transform="scale(1.06368)"
         id="g528"><path
           id="path530"
           style="fill:#f69575;fill-opacity:1;fill-rule:nonzero;stroke:none"
           d="m 16300,8807.39 -158.1,97.4 -185,70.6 c -23.3,-62.33 79.2,-97.4 79.2,-97.4 -148.6,1.7 -288.6,40.43 -288.6,40.43 -54.2,4.51 -39.1,-42.02 -39.1,-42.02 67,-40.05 243.7,-69.67 243.7,-69.67 -101.7,2.63 -269.5,31.31 -269.5,31.31 -45.1,-4.42 -22.3,-45.22 -22.3,-45.22 74.8,-77.37 276.6,-61.02 276.6,-61.02 -76,-8.65 -241.6,13.45 -241.6,13.45 -27.5,-17.59 -13.7,-29.8 -13.7,-29.8 49.9,-70.42 243.9,-54.06 243.9,-54.06 l -72.7,-4.24 c -100.3,3.11 -62.2,-49.54 -62.2,-49.54 l 52.2,-9.78 c 159.8,-27.17 285.8,22.57 285.8,22.57 l 169.4,40.89 2,146.1" /></g></g></g></svg>